<?xml version="1.0" encoding="UTF-8"?><svg id="uuid-bdc8284c-505f-4e36-b7ea-28d2b6951400" xmlns="http://www.w3.org/2000/svg" viewBox="0 0 320.02 320.02"><defs><style>.uuid-7cab9464-3e11-4807-9d5f-9d7d029dfc7c{fill:#fff;}</style></defs><path class="uuid-7cab9464-3e11-4807-9d5f-9d7d029dfc7c" d="M310.6,265.42c12.5,12.5,12.5,32.75,0,45.25-6.2,6.25-14.4,9.35-22.6,9.35s-16.38-3.12-22.62-9.38l-105.38-105.33-105.37,105.3c-6.25,6.3-14.44,9.4-22.63,9.4s-16.37-3.1-22.62-9.4c-12.5-12.5-12.5-32.75,0-45.25l105.4-105.4L9.38,54.62C-3.12,42.12-3.12,21.88,9.38,9.38s32.75-12.5,45.25,0l105.38,105.45L265.4,9.42c12.5-12.5,32.75-12.5,45.25,0s12.5,32.75,0,45.25l-105.4,105.4,105.35,105.35Z"/></svg>